HIERARCHY
ROOT hip
{
  OFFSET 0 0 0
  CHANNELS 6 Xposition Yposition Zposition Zrotation Yrotation Xrotation
  JOINT abdomen
  {
    OFFSET 0 20.6881 -0.73152
    CHANNELS 3 Zrotation Xrotation Yrotation
    JOINT chest
    {
      OFFSET 0 11.7043 -0.48768
      CHANNELS 3 Zrotation Xrotation Yrotation
      JOINT neck
      {
        OFFSET 0 22.1894 -2.19456
        CHANNELS 3 Zrotation Xrotation Yrotation
        JOINT head
        {
          OFFSET -0.24384 7.07133 1.2192
          CHANNELS 3 Zrotation Xrotation Yrotation
          JOINT leftEye
          {
            OFFSET 4.14528 8.04674 8.04672
            CHANNELS 3 Zrotation Xrotation Yrotation
            End Site
            {
              OFFSET 1 0 0
            }
          }
          JOINT rightEye
          {
            OFFSET -3.6576 8.04674 8.04672
            CHANNELS 3 Zrotation Xrotation Yrotation
            End Site
            {
              OFFSET 1 0 0
            }
          }
        }
      }
      JOINT rCollar
      {
        OFFSET -2.68224 19.2634 -4.8768
        CHANNELS 3 Zrotation Xrotation Yrotation
        JOINT rShldr
        {
          OFFSET -8.77824 -1.95073 1.46304
          CHANNELS 3 Zrotation Xrotation Yrotation
          JOINT rForeArm
          {
            OFFSET -28.1742 -1.7115 0.48768
            CHANNELS 3 Zrotation Xrotation Yrotation
            JOINT rHand
            {
              OFFSET -22.5879 0.773209 7.07136
              CHANNELS 3 Zrotation Xrotation Yrotation
              JOINT rThumb1
              {
                OFFSET -1.2192 -0.487915 3.41376
                CHANNELS 3 Zrotation Xrotation Yrotation
                JOINT rThumb2
                {
                  OFFSET -3.37035 -0.52449 3.41376
                  CHANNELS 3 Zrotation Xrotation Yrotation
                  End Site
                  {
                    OFFSET -1.78271 -1.18214 1.43049
                  }
                }
              }
              JOINT rIndex1
              {
                OFFSET -7.75947 0.938293 5.60832
                CHANNELS 3 Zrotation Xrotation Yrotation
                JOINT rIndex2
                {
                  OFFSET -2.54057 -0.884171 1.56538
                  CHANNELS 3 Zrotation Xrotation Yrotation
                  End Site
                  {
                    OFFSET -1.62519 -0.234802 1.16502
                  }
                }
              }
              JOINT rMid1
              {
                OFFSET -8.24714 1.18213 3.41376
                CHANNELS 3 Zrotation Xrotation Yrotation
                JOINT rMid2
                {
                  OFFSET -3.10165 -0.590103 1.0647
                  CHANNELS 3 Zrotation Xrotation Yrotation
                  End Site
                  {
                    OFFSET -2.48547 -0.328903 0.83742
                  }
                }
              }
              JOINT rRing1
              {
                OFFSET -8.82822 0.546677 1.51678
                CHANNELS 3 Zrotation Xrotation Yrotation
                JOINT rRing2
                {
                  OFFSET -2.60934 -0.819778 -0.0198488
                  CHANNELS 3 Zrotation Xrotation Yrotation
                  End Site
                  {
                    OFFSET -2.33842 -0.294052 0.168128
                  }
                }
              }
              JOINT rPinky1
              {
                OFFSET -8.27202 -0.0477905 -0.4584
                CHANNELS 3 Zrotation Xrotation Yrotation
                JOINT rPinky2
                {
                  OFFSET -1.82734 -0.647385 -0.700984
                  CHANNELS 3 Zrotation Xrotation Yrotation
                  End Site
                  {
                    OFFSET -1.69225 -0.51767 -0.607171
                  }
                }
              }
            }
          }
        }
      }
      JOINT lCollar
      {
        OFFSET 2.68224 19.2634 -4.8768
        CHANNELS 3 Zrotation Xrotation Yrotation
        JOINT lShldr
        {
          OFFSET 8.77824 -1.95073 1.46304
          CHANNELS 3 Zrotation Xrotation Yrotation
          JOINT lForeArm
          {
            OFFSET 28.1742 -1.7115 0.48768
            CHANNELS 3 Zrotation Xrotation Yrotation
            JOINT lHand
            {
              OFFSET 22.5879 0.773209 7.07136
              CHANNELS 3 Zrotation Xrotation Yrotation
              JOINT lThumb1
              {
                OFFSET 1.2192 -0.487915 3.41376
                CHANNELS 3 Zrotation Xrotation Yrotation
                JOINT lThumb2
                {
                  OFFSET 3.37035 -0.52449 3.41376
                  CHANNELS 3 Zrotation Xrotation Yrotation
                  End Site
                  {
                    OFFSET 1.78271 -1.18214 1.43049
                  }
                }
              }
              JOINT lIndex1
              {
                OFFSET 7.75947 0.938293 5.60832
                CHANNELS 3 Zrotation Xrotation Yrotation
                JOINT lIndex2
                {
                  OFFSET 2.54057 -0.884171 1.56538
                  CHANNELS 3 Zrotation Xrotation Yrotation
                  End Site
                  {
                    OFFSET 1.62519 -0.234802 1.16502
                  }
                }
              }
              JOINT lMid1
              {
                OFFSET 8.24714 1.18213 3.41376
                CHANNELS 3 Zrotation Xrotation Yrotation
                JOINT lMid2
                {
                  OFFSET 3.10165 -0.590103 1.0647
                  CHANNELS 3 Zrotation Xrotation Yrotation
                  End Site
                  {
                    OFFSET 2.48547 -0.328903 0.83742
                  }
                }
              }
              JOINT lRing1
              {
                OFFSET 8.82822 0.546677 1.51678
                CHANNELS 3 Zrotation Xrotation Yrotation
                JOINT lRing2
                {
                  OFFSET 2.60934 -0.819778 -0.0198488
                  CHANNELS 3 Zrotation Xrotation Yrotation
                  End Site
                  {
                    OFFSET 2.33842 -0.294052 0.168128
                  }
                }
              }
              JOINT lPinky1
              {
                OFFSET 8.27202 -0.0477905 -0.4584
                CHANNELS 3 Zrotation Xrotation Yrotation
                JOINT lPinky2
                {
                  OFFSET 1.82734 -0.647385 -0.700984
                  CHANNELS 3 Zrotation Xrotation Yrotation
                  End Site
                  {
                    OFFSET 1.69225 -0.51767 -0.607171
                  }
                }
              }
            }
          }
        }
      }
    }
  }
  JOINT rButtock
  {
    OFFSET -8.77824 4.35084 1.2192
    CHANNELS 3 Zrotation Xrotation Yrotation
    JOINT rThigh
    {
      OFFSET 0 -1.70687 -2.19456
      CHANNELS 3 Zrotation Xrotation Yrotation
      JOINT rShin
      {
        OFFSET 0 -36.8199 0.73152
        CHANNELS 3 Zrotation Xrotation Yrotation
        JOINT rFoot
        {
          OFFSET 0.73152 -45.1104 -5.12064
          CHANNELS 3 Zrotation Xrotation Yrotation
          End Site
          {
            OFFSET -1.1221 -3.69964 12.103
          }
        }
      }
    }
  }
  JOINT lButtock
  {
    OFFSET 8.77824 4.35084 1.2192
    CHANNELS 3 Zrotation Xrotation Yrotation
    JOINT lThigh
    {
      OFFSET 0 -1.70687 -2.19456
      CHANNELS 3 Zrotation Xrotation Yrotation
      JOINT lShin
      {
        OFFSET 0 -36.8199 0.73152
        CHANNELS 3 Zrotation Xrotation Yrotation
        JOINT lFoot
        {
          OFFSET -0.73152 -45.1104 -5.12064
          CHANNELS 3 Zrotation Xrotation Yrotation
          End Site
          {
            OFFSET 1.1221 -3.69964 12.103
          }
        }
      }
    }
  }
}
MOTION
Frames:	8
Frame Time:	0.03333
94.5119 65.9378 -20.2432 -163.69481 -7.83629 -179.071427 5.157199 35.068845 6.968057 -4.039949 -14.589247 -11.005507 -14.539238 15.982777 -60.550447 31.657484 7.396141 20.484401 -134.299858 20.358858 46.158511 -4.535641 -2.934591 65.790412 -112.214885 55.86122 121.166953 -123.057144 31.285577 112.093956 133.743487 73.110332 -39.447005 -19.744054 21.804455 -1.119517 -170.33683 -44.488735 73.134825 0.036776 -15.533362 15.491287 6.540361 26.078296 13.09369 -0.536752 -21.218581 4.083243 7.300123 12.205888 -27.864252 -179.193834 4.723956 69.508986 19.587179 46.659312 -7.496169 -15.343396 -26.969622 39.663225 121.991428 65.959382 -26.227047 -163.967582 21.004849 -55.119561 12.208482 -44.101963 13.279917 -93.832378 41.291666 41.726697 178.271749 -2.547852 -48.462343 167.704599 11.209406 -146.589285 162.612325 -0.93226 -106.122302 58.965578 -8.608694 -5.549972 -15.31668 -11.302024 9.927371 8.735772 -15.368055 27.236202 -14.517742 -11.992976 -9.130837 85.650245 71.244302 -22.157478 66.276661 -0.755364 176.663399 -104.251239 14.162538 2.146774 118.292661 59.150857 -177.064137 98.60425 -65.474058 112.737754 -37.028643 69.648479 126.25798 -126.950525 28.330084 103.06019 -63.085144 -75.691811 23.689502 3.130475 -38.344305 98.685925 63.642682 49.098792 42.459919 -93.776113 -35.485603 -11.515707 82.366353 45.242792 7.353817 -97.321345 58.376363 -5.608373
95.7604 64.83 -19.677 -164.35379 -9.075839 -178.642523 4.052652 29.052759 123.014263 -8.042094 6.571451 -125.088956 -14.881465 20.506118 -90.642101 29.703738 20.270207 47.724962 -143.64203 19.371363 54.926872 -8.746637 -5.411564 63.428791 7.682231 -7.822712 2.14719 47.980328 31.546597 -1.083563 -3.19701 -49.494404 87.445161 -13.748356 4.462565 -5.130494 -3.379201 35.014152 24.714647 -154.67344 -12.455593 112.465621 -4.24664 36.496816 19.479143 175.467909 -5.01687 107.604222 -84.848813 -67.613634 -119.573767 81.84763 37.081635 -22.232103 25.46824 56.571941 -3.135693 -47.598126 14.033193 27.759931 32.68673 -28.432303 -33.663932 -175.17931 40.667842 138.991008 147.293662 57.946424 -139.63306 105.188783 24.003278 -73.895379 12.573357 -8.580706 134.607658 175.073168 -6.654373 -148.046642 10.440977 20.42997 9.220748 114.544963 -24.04149 -101.012333 -8.426767 0.575221 4.511793 170.030076 -49.46794 -146.484 -22.076579 -25.344206 -9.364631 71.057555 36.293211 -10.666445 80.567315 2.120186 -178.181712 -92.352274 17.892471 9.560736 -8.158963 32.512346 -34.310276 -27.724018 4.965685 8.058914 -96.136025 -20.380532 -21.478854 53.857173 -21.152971 83.886141 79.182376 -18.202374 -167.970919 127.295986 29.513076 -42.536378 -67.464064 13.758811 -23.951479 121.941057 -17.007482 -94.223919 -90.425012 -34.229091 -147.880711 -42.727957 -27.380746 -126.986866
96.4649 63.3537 -19.656399999999998 -165.601546 -6.366121 -178.936379 3.407244 28.167782 142.214197 -4.220645 9.071316 -146.340652 0.027012 11.085214 37.208622 -8.47037 -20.766665 -75.955625 -131.336881 16.719595 36.006391 -14.317445 -8.141624 59.075451 4.771281 8.14303 7.213187 49.850824 -2.512482 5.737212 171.756978 28.194791 58.559383 -170.034786 -5.882648 139.836334 25.029093 21.827541 8.567359 25.300687 -73.952155 1.253826 24.347483 6.229778 -6.112946 -171.773614 0.60086 84.614322 -123.556277 -58.215942 -160.390271 -81.840349 -31.160599 -157.726957 20.66594 32.917786 -4.895403 -130.112123 27.55191 106.532429 -94.444697 27.323606 -133.560471 -48.334877 57.692599 174.863449 15.174516 -43.248554 17.95811 111.003553 -2.335304 146.102523 -158.34166 -53.850536 104.654888 9.75938 -0.473441 -1.362772 168.15543 -14.825223 -105.679504 40.372529 -9.523402 4.495451 132.309946 -4.066213 -117.699265 154.497233 -27.600707 -85.629864 153.950199 -9.469226 -131.406759 114.666561 -11.02941 -134.718795 96.920204 -5.33024 171.263584 75.03948 -51.354449 163.048422 112.034261 -37.080664 143.48962 16.432732 63.644366 -45.323656 -14.338389 63.704881 97.189466 -110.979156 16.402715 -144.686818 -66.803195 33.21849 36.250349 -66.025209 -36.770071 32.299521 56.892822 45.006096 41.000125 -86.564337 -45.810534 -174.884942 -82.607765 -42.383876 2.82119 71.618929 -59.256787 148.392292
96.9165 62.752300000000005 -19.7876 -166.599767 -6.398053 -177.692876 6.018547 29.011907 3.928548 -5.890579 -12.219136 -11.497334 -15.221738 18.846463 -65.501105 35.225784 7.329137 29.023212 -141.105726 14.775945 40.330097 -14.068344 -6.919742 52.208613 5.462616 1.758734 7.432973 50.56259 8.791779 0.652614 -146.596355 15.592596 43.655795 175.719279 -48.320741 142.799376 22.360883 15.016785 12.01364 -148.04264 -8.088878 104.398677 57.136385 -59.688496 -5.15308 114.918656 -52.893697 37.413303 -163.868096 64.988297 167.879321 161.342372 76.033546 109.077915 -126.051852 -6.717487 -166.385798 92.780971 44.097877 -86.659501 -122.764644 63.807259 -128.669367 -161.652839 63.097144 -65.986493 23.819716 57.576937 -10.799123 87.634269 9.65322 -122.615794 172.728868 -21.835041 85.227079 3.813811 -19.237432 2.069521 178.552533 -31.160938 -102.411858 78.919634 36.941128 -28.072013 10.91487 26.297348 -20.272609 146.363641 -14.585923 -159.559271 -17.405747 -5.267136 -8.469799 45.910297 -42.888984 18.753967 108.745065 11.091758 172.795784 -70.02834 10.680047 29.978813 21.31106 -66.83167 39.980531 176.779775 58.887145 148.373635 -90.835437 -19.688547 -3.810716 49.688083 -31.118975 162.306671 -39.20101 -71.305608 48.462576 5.621876 -3.395392 83.436954 -76.2794 19.525338 -28.852914 131.681628 -8.092862 -26.370744 -80.344769 24.929879 9.659146 19.829327 -32.884447 88.758647
97.33000000000001 62.2866 -19.8152 -167.1438 -6.497679 -176.121216 8.670601 25.400034 -20.574363 -2.767188 -13.00894 11.771001 -15.215457 22.817596 -88.392933 35.024728 18.999506 50.9686 -146.589478 14.787474 46.766242 -12.977454 -6.249725 51.28189 5.744012 -3.450032 8.435617 52.471831 17.029473 -3.897307 -174.240962 30.507392 51.585563 -178.403675 -23.194177 141.089145 178.730614 -33.263982 66.206065 -85.631164 9.029812 43.976448 -37.303453 42.846036 46.831786 -168.661411 14.081039 107.954126 -176.693444 77.566175 179.368271 -137.107413 65.684106 39.281994 22.256527 15.754546 -2.560575 -7.460284 5.544898 45.815024 44.381313 -14.631057 -17.030476 -84.76875 -71.804359 -2.929429 11.842208 -5.6327 12.745852 -74.314374 16.339996 6.864674 8.807728 12.072637 -98.803944 0.594424 -26.963869 3.802221 163.224252 -6.735329 -102.868605 148.490164 26.261187 -82.280006 -47.547529 -44.65445 -1.901684 -51.928549 -75.184537 -50.481958 80.746845 51.160784 -88.714408 -3.0675 -24.162072 58.254511 112.5018 0.912653 177.67399 -59.599463 -2.600389 19.893811 133.748489 -3.383473 160.670724 139.934705 64.046213 -170.183607 -11.561089 84.491731 105.916272 -132.888909 25.527035 5.844043 66.101916 -1.351695 -82.392089 122.594907 -41.909569 2.007799 -67.344798 14.409471 -25.742441 123.387954 -16.292592 -136.859804 -1.893386 -84.090727 92.63036 21.216952 -4.897944 90.170068
97.7945 61.7336 -19.6248 -167.508726 -6.801545 -174.723744 7.546238 22.511874 29.279152 -9.774668 -6.587697 -38.417168 3.357267 14.745869 62.822933 -24.534167 -12.248472 -96.957349 -146.788363 17.334606 54.147866 -11.741195 -5.74381 52.01522 12.074332 -26.337288 7.367231 -132.525079 12.835222 -161.229442 9.336636 15.117274 -129.842594 -177.06437 -16.580886 140.351156 16.979135 8.010834 16.492615 9.485851 -48.790178 -25.02859 -8.946121 32.695689 19.452101 -150.512412 20.526757 89.25352 -38.361475 -61.260148 -77.109657 88.431274 63.658964 -14.48199 24.348646 5.80351 -3.691511 -105.135091 34.288492 106.825047 -101.763384 37.264412 -137.095024 124.126422 66.569527 -0.882362 35.429059 -63.711674 45.843407 112.32118 -18.657584 121.555595 -127.539159 -49.481164 126.254791 14.404213 20.546996 1.411517 0.318737 6.765978 9.255516 -36.085803 -18.12022 -4.57471 -32.708308 -24.704663 -3.337698 -160.219744 11.517656 -140.110681 -14.091047 4.872824 -11.047543 -165.645042 80.847921 -137.988288 110.955221 13.948477 -165.519905 101.884106 -16.83269 160.482669 3.657261 -10.241558 -23.782859 -0.942274 -24.58513 36.560069 -91.763342 -3.657472 -23.099168 66.163263 -21.356914 146.356953 45.473804 -56.44835 -143.173818 -36.131814 -5.437874 15.306961 -56.179314 9.10933 -20.447366 113.68417 -24.244164 -94.204962 -86.481505 -39.002864 -172.460982 -56.705673 63.559878 -45.422402
98.2677 61.1417 -19.2651 -167.976764 -6.779122 -173.667168 6.799507 20.043536 57.33358 -10.382081 -2.063557 -66.105002 5.187347 21.285956 98.510499 -35.077253 8.464852 -126.01532 -142.414859 20.550766 56.093232 -11.196264 -5.439426 51.713573 -122.18318 42.492646 124.736555 -79.053368 32.407364 76.842652 -2.575675 -40.471144 -134.693178 -179.66062 -28.087876 142.097178 59.343564 -18.54428 14.4085 -24.313392 -10.448504 -16.516896 -138.532496 -33.521722 130.353477 -45.594087 84.55108 39.886629 -15.019582 -47.789312 -52.932713 20.246389 64.703595 59.658087 26.410936 2.08843 -4.672482 54.820862 -48.394469 50.420705 -99.822644 34.804413 -136.408785 -67.216549 36.445709 -140.669599 128.56239 -66.454562 143.49394 -147.513975 16.119534 131.373789 -173.974501 22.834465 -49.118823 171.831984 19.487837 -136.08684 -12.365307 -13.398012 7.66359 -12.863635 -0.689067 4.595817 2.927153 12.924991 -19.110621 9.239249 -26.451068 64.73355 -23.311253 -16.06233 -10.968259 45.384778 -15.232677 6.421482 -31.196198 -12.999486 -15.840817 41.253287 17.850554 -5.197789 26.86337 49.440162 -52.45452 16.865087 70.241843 -77.987881 41.210427 52.132958 55.258892 -111.854698 13.274385 -16.995775 69.493531 33.652728 36.373449 -146.178184 -8.581889 136.50058 -60.688922 12.141771 -25.158921 117.796909 -19.175075 7.606387 -88.390045 62.216494 -146.048438 -170.50838 -0.076501 112.335167
98.4238 60.564499999999995 -19.058500000000002 -169.034875 -6.867919 -173.926144 6.205963 21.011141 22.757481 -7.610119 -9.066491 -32.934419 -18.050862 19.966408 -54.744998 40.987378 -4.891632 28.332114 -139.020492 21.218149 53.244957 -9.482584 -4.513548 50.828687 -13.318052 25.047368 23.4588 -99.537766 36.272133 150.764939 -175.007885 -11.727765 -85.461505 -19.99008 15.687958 0.720117 -1.755157 16.552126 21.243846 8.713961 -37.43162 -25.801318 32.535832 -42.345266 -21.043858 137.410379 -38.678669 35.995249 -113.636749 -65.754583 -148.261093 -35.292585 -56.301909 -118.510133 -122.449719 11.154719 -175.421042 149.87673 50.901332 -134.804866 36.637648 -28.697155 -22.447416 -38.353891 -66.121691 36.416504 163.396768 14.003831 -173.383086 55.796829 0.796316 -22.032384 167.769536 -13.850731 81.167457 -0.928895 -17.535039 8.413467 -3.515899 -4.191694 5.127732 66.679454 27.118483 -70.000909 166.338658 -38.660855 -98.169158 -10.622822 -8.151939 -53.502043 -10.799949 1.314143 -15.557006 -155.928642 -32.59477 -164.513377 -43.769359 -52.580059 -11.121317 125.005865 40.429463 -96.399484 81.996027 63.487395 -133.00933 12.019677 -41.292435 15.354779 49.558734 54.840799 57.70854 -119.162773 21.642306 40.651339 77.694209 -5.442852 119.052479 57.712049 -21.109421 164.219903 51.652808 35.967601 38.371337 -77.011589 -54.040056 -121.068502 -88.309618 5.162896 -36.992387 120.799786 -29.928783 -170.284967
